<?xml version="1.0" encoding="UTF-8" ?>
<svg version="1.1" width="320" height="320" xmlns="http://www.w3.org/2000/svg" shape-rendering="crispEdges">
<rect x="135" y="0" width="50" height="15" fill="#72A6C2" />
<rect x="115" y="5" width="20" height="15" fill="#72A6C2" />
<rect x="185" y="5" width="20" height="15" fill="#72A6C2" />
<rect x="100" y="10" width="15" height="10" fill="#72A6C2" />
<rect x="205" y="10" width="15" height="15" fill="#72A6C2" />
<rect x="90" y="15" width="10" height="10" fill="#72A6C2" />
<rect x="135" y="15" width="50" height="65" fill="#8ACFDB" />
<rect x="220" y="15" width="10" height="15" fill="#72A6C2" />
<rect x="80" y="20" width="10" height="10" fill="#72A6C2" />
<rect x="100" y="20" width="30" height="30" fill="#C3DFE0" />
<rect x="130" y="20" width="5" height="5" fill="#8ACFDB" />
<rect x="185" y="20" width="20" height="90" fill="#8ACFDB" />
<rect x="230" y="20" width="10" height="15" fill="#72A6C2" />
<rect x="75" y="25" width="5" height="10" fill="#72A6C2" />
<rect x="90" y="25" width="10" height="60" fill="#C3DFE0" />
<rect x="130" y="25" width="5" height="10" fill="#C3DFE0" />
<rect x="205" y="25" width="15" height="145" fill="#8ACFDB" />
<rect x="240" y="25" width="5" height="15" fill="#72A6C2" />
<rect x="65" y="30" width="10" height="10" fill="#72A6C2" />
<rect x="80" y="30" width="10" height="55" fill="#C3DFE0" />
<rect x="220" y="30" width="10" height="155" fill="#8ACFDB" />
<rect x="245" y="30" width="10" height="15" fill="#72A6C2" />
<rect x="60" y="35" width="5" height="20" fill="#72A6C2" />
<rect x="75" y="35" width="5" height="45" fill="#C3DFE0" />
<rect x="130" y="35" width="5" height="50" fill="#8ACFDB" />
<rect x="230" y="35" width="10" height="160" fill="#8ACFDB" />
<rect x="255" y="35" width="5" height="20" fill="#72A6C2" />
<rect x="55" y="40" width="5" height="15" fill="#72A6C2" />
<rect x="65" y="40" width="5" height="5" fill="#72A6C2" />
<rect x="70" y="40" width="5" height="35" fill="#C3DFE0" />
<rect x="240" y="40" width="5" height="205" fill="#8ACFDB" />
<rect x="260" y="40" width="5" height="15" fill="#72A6C2" />
<rect x="50" y="45" width="5" height="15" fill="#72A6C2" />
<rect x="65" y="45" width="5" height="25" fill="#C3DFE0" />
<rect x="245" y="45" width="5" height="195" fill="#8ACFDB" />
<rect x="250" y="45" width="5" height="5" fill="#72A6C2" />
<rect x="265" y="45" width="5" height="15" fill="#72A6C2" />
<rect x="45" y="50" width="5" height="20" fill="#72A6C2" />
<rect x="100" y="50" width="25" height="5" fill="#C3DFE0" />
<rect x="125" y="50" width="5" height="35" fill="#8ACFDB" />
<rect x="250" y="50" width="5" height="185" fill="#8ACFDB" />
<rect x="270" y="50" width="5" height="20" fill="#72A6C2" />
<rect x="40" y="55" width="5" height="20" fill="#72A6C2" />
<rect x="55" y="55" width="10" height="175" fill="#8ACFDB" />
<rect x="100" y="55" width="20" height="15" fill="#C3DFE0" />
<rect x="120" y="55" width="5" height="35" fill="#8ACFDB" />
<rect x="255" y="55" width="10" height="175" fill="#8ACFDB" />
<rect x="275" y="55" width="5" height="20" fill="#72A6C2" />
<rect x="35" y="60" width="5" height="20" fill="#72A6C2" />
<rect x="50" y="60" width="5" height="165" fill="#8ACFDB" />
<rect x="265" y="60" width="5" height="165" fill="#8ACFDB" />
<rect x="280" y="60" width="5" height="20" fill="#72A6C2" />
<rect x="30" y="65" width="5" height="25" fill="#72A6C2" />
<rect x="285" y="65" width="5" height="25" fill="#72A6C2" />
<rect x="45" y="70" width="5" height="145" fill="#8ACFDB" />
<rect x="65" y="70" width="5" height="165" fill="#8ACFDB" />
<rect x="100" y="70" width="15" height="5" fill="#C3DFE0" />
<rect x="115" y="70" width="5" height="25" fill="#8ACFDB" />
<rect x="270" y="70" width="5" height="145" fill="#8ACFDB" />
<rect x="25" y="75" width="5" height="25" fill="#72A6C2" />
<rect x="40" y="75" width="5" height="135" fill="#8ACFDB" />
<rect x="70" y="75" width="5" height="165" fill="#8ACFDB" />
<rect x="100" y="75" width="10" height="5" fill="#C3DFE0" />
<rect x="110" y="75" width="5" height="25" fill="#8ACFDB" />
<rect x="275" y="75" width="5" height="135" fill="#8ACFDB" />
<rect x="290" y="75" width="5" height="25" fill="#72A6C2" />
<rect x="20" y="80" width="5" height="40" fill="#72A6C2" />
<rect x="35" y="80" width="5" height="125" fill="#8ACFDB" />
<rect x="75" y="80" width="5" height="165" fill="#8ACFDB" />
<rect x="100" y="80" width="5" height="5" fill="#C3DFE0" />
<rect x="105" y="80" width="5" height="25" fill="#8ACFDB" />
<rect x="135" y="80" width="20" height="10" fill="#29465E" />
<rect x="155" y="80" width="30" height="5" fill="#8ACFDB" />
<rect x="280" y="80" width="5" height="125" fill="#8ACFDB" />
<rect x="295" y="80" width="5" height="40" fill="#72A6C2" />
<rect x="80" y="85" width="25" height="25" fill="#8ACFDB" />
<rect x="125" y="85" width="10" height="10" fill="#29465E" />
<rect x="155" y="85" width="10" height="10" fill="#29465E" />
<rect x="165" y="85" width="20" height="5" fill="#8ACFDB" />
<rect x="15" y="90" width="5" height="80" fill="#72A6C2" />
<rect x="30" y="90" width="5" height="105" fill="#8ACFDB" />
<rect x="120" y="90" width="5" height="10" fill="#29465E" />
<rect x="135" y="90" width="20" height="5" fill="#8ACFDB" />
<rect x="165" y="90" width="5" height="10" fill="#29465E" />
<rect x="170" y="90" width="15" height="5" fill="#8ACFDB" />
<rect x="285" y="90" width="5" height="105" fill="#8ACFDB" />
<rect x="300" y="90" width="5" height="80" fill="#72A6C2" />
<rect x="115" y="95" width="5" height="10" fill="#29465E" />
<rect x="125" y="95" width="10" height="5" fill="#8ACFDB" />
<rect x="135" y="95" width="20" height="70" fill="#29465E" />
<rect x="155" y="95" width="10" height="5" fill="#8ACFDB" />
<rect x="170" y="95" width="5" height="10" fill="#29465E" />
<rect x="175" y="95" width="10" height="5" fill="#8ACFDB" />
<rect x="10" y="100" width="5" height="50" fill="#72A6C2" />
<rect x="25" y="100" width="5" height="85" fill="#8ACFDB" />
<rect x="110" y="100" width="5" height="10" fill="#29465E" />
<rect x="120" y="100" width="5" height="5" fill="#8ACFDB" />
<rect x="125" y="100" width="10" height="60" fill="#29465E" />
<rect x="155" y="100" width="10" height="60" fill="#29465E" />
<rect x="165" y="100" width="5" height="5" fill="#8ACFDB" />
<rect x="175" y="100" width="5" height="10" fill="#29465E" />
<rect x="180" y="100" width="5" height="5" fill="#8ACFDB" />
<rect x="290" y="100" width="5" height="85" fill="#8ACFDB" />
<rect x="305" y="100" width="5" height="50" fill="#72A6C2" />
<rect x="105" y="105" width="5" height="15" fill="#29465E" />
<rect x="115" y="105" width="5" height="5" fill="#8ACFDB" />
<rect x="120" y="105" width="5" height="50" fill="#29465E" />
<rect x="165" y="105" width="5" height="50" fill="#29465E" />
<rect x="170" y="105" width="5" height="5" fill="#8ACFDB" />
<rect x="180" y="105" width="5" height="15" fill="#29465E" />
<rect x="80" y="110" width="20" height="10" fill="#8ACFDB" />
<rect x="100" y="110" width="5" height="40" fill="#29465E" />
<rect x="110" y="110" width="5" height="15" fill="#8ACFDB" />
<rect x="115" y="110" width="5" height="40" fill="#29465E" />
<rect x="170" y="110" width="5" height="40" fill="#29465E" />
<rect x="175" y="110" width="5" height="10" fill="#8ACFDB" />
<rect x="185" y="110" width="5" height="40" fill="#29465E" />
<rect x="190" y="110" width="15" height="10" fill="#8ACFDB" />
<rect x="5" y="115" width="5" height="15" fill="#72A6C2" />
<rect x="310" y="115" width="5" height="15" fill="#72A6C2" />
<rect x="20" y="120" width="5" height="45" fill="#8ACFDB" />
<rect x="80" y="120" width="15" height="130" fill="#8ACFDB" />
<rect x="95" y="120" width="5" height="20" fill="#29465E" />
<rect x="105" y="120" width="5" height="20" fill="#8ACFDB" />
<rect x="175" y="120" width="5" height="20" fill="#29465E" />
<rect x="180" y="120" width="5" height="20" fill="#8ACFDB" />
<rect x="190" y="120" width="5" height="20" fill="#29465E" />
<rect x="195" y="120" width="10" height="45" fill="#8ACFDB" />
<rect x="295" y="120" width="5" height="45" fill="#8ACFDB" />
<rect x="110" y="125" width="5" height="15" fill="#29465E" />
<rect x="5" y="130" width="5" height="50" fill="#29465E" />
<rect x="310" y="130" width="5" height="50" fill="#29465E" />
<rect x="95" y="140" width="5" height="115" fill="#8ACFDB" />
<rect x="105" y="140" width="5" height="15" fill="#29465E" />
<rect x="110" y="140" width="5" height="10" fill="#8ACFDB" />
<rect x="175" y="140" width="5" height="10" fill="#8ACFDB" />
<rect x="180" y="140" width="5" height="15" fill="#29465E" />
<rect x="190" y="140" width="5" height="20" fill="#8ACFDB" />
<rect x="10" y="150" width="5" height="50" fill="#29465E" />
<rect x="100" y="150" width="5" height="110" fill="#8ACFDB" />
<rect x="110" y="150" width="5" height="10" fill="#29465E" />
<rect x="115" y="150" width="5" height="5" fill="#8ACFDB" />
<rect x="170" y="150" width="5" height="5" fill="#8ACFDB" />
<rect x="175" y="150" width="5" height="10" fill="#29465E" />
<rect x="185" y="150" width="5" height="5" fill="#8ACFDB" />
<rect x="305" y="150" width="5" height="50" fill="#29465E" />
<rect x="105" y="155" width="5" height="105" fill="#8ACFDB" />
<rect x="115" y="155" width="5" height="10" fill="#29465E" />
<rect x="120" y="155" width="5" height="5" fill="#8ACFDB" />
<rect x="165" y="155" width="5" height="5" fill="#8ACFDB" />
<rect x="170" y="155" width="5" height="10" fill="#29465E" />
<rect x="180" y="155" width="5" height="5" fill="#8ACFDB" />
<rect x="185" y="155" width="5" height="15" fill="#29465E" />
<rect x="110" y="160" width="5" height="100" fill="#8ACFDB" />
<rect x="120" y="160" width="5" height="10" fill="#29465E" />
<rect x="125" y="160" width="10" height="5" fill="#8ACFDB" />
<rect x="155" y="160" width="10" height="5" fill="#8ACFDB" />
<rect x="165" y="160" width="5" height="10" fill="#29465E" />
<rect x="175" y="160" width="5" height="5" fill="#8ACFDB" />
<rect x="180" y="160" width="5" height="15" fill="#29465E" />
<rect x="190" y="160" width="5" height="5" fill="#29465E" />
<rect x="20" y="165" width="5" height="20" fill="#72A6C2" />
<rect x="115" y="165" width="5" height="100" fill="#8ACFDB" />
<rect x="125" y="165" width="10" height="10" fill="#29465E" />
<rect x="135" y="165" width="20" height="5" fill="#8ACFDB" />
<rect x="155" y="165" width="10" height="10" fill="#29465E" />
<rect x="170" y="165" width="5" height="5" fill="#8ACFDB" />
<rect x="175" y="165" width="5" height="15" fill="#29465E" />
<rect x="190" y="165" width="5" height="5" fill="#8ACFDB" />
<rect x="195" y="165" width="10" height="40" fill="#29465E" />
<rect x="295" y="165" width="5" height="20" fill="#72A6C2" />
<rect x="15" y="170" width="5" height="45" fill="#29465E" />
<rect x="120" y="170" width="5" height="95" fill="#8ACFDB" />
<rect x="135" y="170" width="20" height="10" fill="#29465E" />
<rect x="165" y="170" width="5" height="100" fill="#8ACFDB" />
<rect x="170" y="170" width="5" height="5" fill="#29465E" />
<rect x="185" y="170" width="5" height="5" fill="#8ACFDB" />
<rect x="190" y="170" width="5" height="30" fill="#29465E" />
<rect x="205" y="170" width="5" height="45" fill="#29465E" />
<rect x="210" y="170" width="10" height="5" fill="#8ACFDB" />
<rect x="300" y="170" width="5" height="45" fill="#29465E" />
<rect x="125" y="175" width="10" height="90" fill="#8ACFDB" />
<rect x="155" y="175" width="10" height="95" fill="#8ACFDB" />
<rect x="170" y="175" width="5" height="95" fill="#8ACFDB" />
<rect x="180" y="175" width="5" height="5" fill="#8ACFDB" />
<rect x="185" y="175" width="5" height="20" fill="#29465E" />
<rect x="210" y="175" width="5" height="45" fill="#29465E" />
<rect x="215" y="175" width="5" height="5" fill="#8ACFDB" />
<rect x="135" y="180" width="20" height="90" fill="#8ACFDB" />
<rect x="175" y="180" width="5" height="90" fill="#8ACFDB" />
<rect x="180" y="180" width="5" height="10" fill="#29465E" />
<rect x="215" y="180" width="5" height="40" fill="#29465E" />
<rect x="20" y="185" width="5" height="40" fill="#29465E" />
<rect x="25" y="185" width="5" height="10" fill="#72A6C2" />
<rect x="220" y="185" width="5" height="30" fill="#29465E" />
<rect x="225" y="185" width="5" height="5" fill="#8ACFDB" />
<rect x="290" y="185" width="5" height="10" fill="#72A6C2" />
<rect x="295" y="185" width="5" height="40" fill="#29465E" />
<rect x="180" y="190" width="5" height="80" fill="#8ACFDB" />
<rect x="225" y="190" width="5" height="25" fill="#29465E" />
<rect x="25" y="195" width="5" height="40" fill="#29465E" />
<rect x="30" y="195" width="5" height="10" fill="#72A6C2" />
<rect x="185" y="195" width="5" height="70" fill="#8ACFDB" />
<rect x="230" y="195" width="5" height="10" fill="#29465E" />
<rect x="235" y="195" width="5" height="55" fill="#8ACFDB" />
<rect x="285" y="195" width="5" height="10" fill="#72A6C2" />
<rect x="290" y="195" width="5" height="40" fill="#29465E" />
<rect x="190" y="200" width="5" height="65" fill="#8ACFDB" />
<rect x="30" y="205" width="5" height="35" fill="#29465E" />
<rect x="35" y="205" width="5" height="10" fill="#72A6C2" />
<rect x="195" y="205" width="5" height="60" fill="#8ACFDB" />
<rect x="200" y="205" width="5" height="5" fill="#29465E" />
<rect x="230" y="205" width="5" height="45" fill="#8ACFDB" />
<rect x="280" y="205" width="5" height="10" fill="#72A6C2" />
<rect x="285" y="205" width="5" height="35" fill="#29465E" />
<rect x="40" y="210" width="5" height="15" fill="#72A6C2" />
<rect x="200" y="210" width="5" height="55" fill="#8ACFDB" />
<rect x="275" y="210" width="5" height="15" fill="#72A6C2" />
<rect x="35" y="215" width="5" height="35" fill="#29465E" />
<rect x="45" y="215" width="5" height="15" fill="#72A6C2" />
<rect x="205" y="215" width="5" height="45" fill="#8ACFDB" />
<rect x="220" y="215" width="10" height="40" fill="#8ACFDB" />
<rect x="270" y="215" width="5" height="15" fill="#72A6C2" />
<rect x="280" y="215" width="5" height="35" fill="#29465E" />
<rect x="210" y="220" width="10" height="40" fill="#8ACFDB" />
<rect x="40" y="225" width="5" height="30" fill="#29465E" />
<rect x="50" y="225" width="5" height="10" fill="#72A6C2" />
<rect x="265" y="225" width="5" height="10" fill="#72A6C2" />
<rect x="275" y="225" width="5" height="30" fill="#29465E" />
<rect x="45" y="230" width="5" height="30" fill="#29465E" />
<rect x="55" y="230" width="10" height="10" fill="#72A6C2" />
<rect x="255" y="230" width="10" height="10" fill="#72A6C2" />
<rect x="270" y="230" width="5" height="30" fill="#29465E" />
<rect x="50" y="235" width="5" height="30" fill="#29465E" />
<rect x="65" y="235" width="5" height="15" fill="#72A6C2" />
<rect x="250" y="235" width="5" height="15" fill="#72A6C2" />
<rect x="265" y="235" width="5" height="30" fill="#29465E" />
<rect x="55" y="240" width="5" height="30" fill="#29465E" />
<rect x="60" y="240" width="5" height="5" fill="#72A6C2" />
<rect x="70" y="240" width="5" height="15" fill="#72A6C2" />
<rect x="245" y="240" width="5" height="15" fill="#72A6C2" />
<rect x="255" y="240" width="5" height="5" fill="#72A6C2" />
<rect x="260" y="240" width="5" height="30" fill="#29465E" />
<rect x="60" y="245" width="5" height="30" fill="#29465E" />
<rect x="75" y="245" width="5" height="15" fill="#72A6C2" />
<rect x="240" y="245" width="5" height="15" fill="#72A6C2" />
<rect x="255" y="245" width="5" height="30" fill="#29465E" />
<rect x="65" y="250" width="5" height="30" fill="#29465E" />
<rect x="80" y="250" width="10" height="15" fill="#72A6C2" />
<rect x="90" y="250" width="5" height="5" fill="#8ACFDB" />
<rect x="230" y="250" width="10" height="15" fill="#72A6C2" />
<rect x="250" y="250" width="5" height="30" fill="#29465E" />
<rect x="70" y="255" width="5" height="30" fill="#29465E" />
<rect x="90" y="255" width="10" height="15" fill="#72A6C2" />
<rect x="220" y="255" width="10" height="15" fill="#72A6C2" />
<rect x="245" y="255" width="5" height="30" fill="#29465E" />
<rect x="75" y="260" width="5" height="25" fill="#29465E" />
<rect x="100" y="260" width="15" height="10" fill="#72A6C2" />
<rect x="205" y="260" width="15" height="10" fill="#72A6C2" />
<rect x="240" y="260" width="5" height="25" fill="#29465E" />
<rect x="80" y="265" width="10" height="25" fill="#29465E" />
<rect x="115" y="265" width="20" height="10" fill="#72A6C2" />
<rect x="185" y="265" width="20" height="10" fill="#72A6C2" />
<rect x="230" y="265" width="10" height="25" fill="#29465E" />
<rect x="90" y="270" width="15" height="25" fill="#29465E" />
<rect x="105" y="270" width="10" height="5" fill="#72A6C2" />
<rect x="135" y="270" width="50" height="10" fill="#72A6C2" />
<rect x="205" y="270" width="10" height="5" fill="#72A6C2" />
<rect x="215" y="270" width="15" height="25" fill="#29465E" />
<rect x="105" y="275" width="15" height="30" fill="#29465E" />
<rect x="120" y="275" width="15" height="5" fill="#72A6C2" />
<rect x="185" y="275" width="15" height="5" fill="#72A6C2" />
<rect x="200" y="275" width="15" height="30" fill="#29465E" />
<rect x="120" y="280" width="25" height="30" fill="#29465E" />
<rect x="145" y="280" width="30" height="5" fill="#72A6C2" />
<rect x="175" y="280" width="25" height="30" fill="#29465E" />
<rect x="145" y="285" width="30" height="30" fill="#29465E" />
<rect x="85" y="290" width="5" height="5" fill="#29465E" />
<rect x="230" y="290" width="5" height="5" fill="#29465E" />
<rect x="95" y="295" width="10" height="5" fill="#29465E" />
<rect x="215" y="295" width="10" height="5" fill="#29465E" />
<rect x="140" y="310" width="5" height="5" fill="#29465E" />
<rect x="175" y="310" width="5" height="5" fill="#29465E" />
</svg>